<svg xmlns="http://www.w3.org/2000/svg" version="1.0" width="1021.795158pt" height="520.618066pt" viewBox="0 0 1021.795158 520.618066" preserveAspectRatio="xMidYMid meet">
<metadata fill="#841630">
</metadata>
<g transform="translate(-29.000000,590.601725) scale(0.100000,-0.100000)" fill="#841630" stroke="none">
<path d="M4910 5396 c-278 -281 -1119 -1130 -1870 -1886 -1271 -1281 -1586 -1599 -2186 -2210 -127 -129 -300 -305 -384 -390 -149 -152 -180 -187 -180 -202 0 -12 1624 -10 1636 2 7 7 1459 11 4296 12 l4286 3 -197 202 c-170 175 -331 341 -606 628 -77 80 -466 481 -621 641 -55 56 -187 192 -294 302 -107 110 -196 205 -198 211 -2 6 -9 11 -16 11 -7 0 -18 11 -24 24 -6 13 -20 27 -31 31 -12 3 -21 11 -21 17 0 6 -146 158 -325 337 -179 179 -403 404 -498 499 l-172 173 95 89 94 88 -66 73 c-36 41 -126 138 -199 216 -109 116 -250 267 -520 557 -18 19 -18 19 -25 1 -10 -26 -161 -173 -186 -181 -15 -4 -31 4 -62 34 -140 136 -148 142 -170 124 -21 -17 -121 -122 -221 -232 -28 -30 -77 -84 -111 -120 -33 -36 -80 -87 -105 -115 -24 -27 -89 -97 -144 -155 -55 -58 -128 -136 -163 -175 l-62 -70 90 -85 c50 -47 90 -88 90 -92 0 -7 -25 -34 -209 -223 -75 -77 -228 -237 -341 -354 -113 -118 -248 -259 -300 -313 -52 -55 -133 -139 -180 -188 -47 -49 -141 -147 -210 -217 -69 -71 -165 -171 -215 -223 l-90 -95 815 -3 815 -2 125 128 c69 71 226 235 350 366 l225 237 25 -32 c24 -30 244 -255 747 -762 124 -125 223 -230 221 -232 -3 -3 -988 -4 -2189 -3 l-2184 3 194 200 c107 110 332 340 501 510 169 171 527 537 796 815 269 278 672 691 897 919 224 228 473 482 552 566 l145 152 -451 449 c-247 247 -453 449 -457 450 -4 1 -234 -229 -512 -510z" fill="#841630"/>
</g>
</svg>